<?xml version="1.0" standalone="no"?><svg xmlns="http://www.w3.org/2000/svg" viewBox="0 0 1440 320"><path fill="#fff" fill-opacity="1" d="M0,160L30,144C60,128,120,96,180,74.7C240,53,300,43,360,64C420,85,480,139,540,165.3C600,192,660,192,720,170.7C780,149,840,107,900,74.7C960,43,1020,21,1080,37.3C1140,53,1200,107,1260,138.7C1320,171,1380,181,1410,186.7L1440,192L1440,320L1410,320C1380,320,1320,320,1260,320C1200,320,1140,320,1080,320C1020,320,960,320,900,320C840,320,780,320,720,320C660,320,600,320,540,320C480,320,420,320,360,320C300,320,240,320,180,320C120,320,60,320,30,320L0,320Z"></path></svg>