<?xml version="1.0" standalone="no"?>
<svg xmlns:xlink="http://www.w3.org/1999/xlink" id="wave" style="transform:rotate(0deg); transition: 0.3s" viewBox="0 0 1440 490" version="1.1" xmlns="http://www.w3.org/2000/svg"><defs><linearGradient id="sw-gradient-0" x1="0" x2="0" y1="1" y2="0"><stop stop-color="rgba(243, 106, 62, 0)" offset="0%"/><stop stop-color="rgba(255, 179, 11, 0)" offset="100%"/></linearGradient></defs><path style="transform:translate(0, 0px); opacity:1" fill="url(#sw-gradient-0)" d="M0,147L48,179.7C96,212,192,278,288,277.7C384,278,480,212,576,204.2C672,196,768,245,864,285.8C960,327,1056,359,1152,367.5C1248,376,1344,359,1440,294C1536,229,1632,114,1728,122.5C1824,131,1920,261,2016,334.8C2112,408,2208,425,2304,375.7C2400,327,2496,212,2592,187.8C2688,163,2784,229,2880,285.8C2976,343,3072,392,3168,408.3C3264,425,3360,408,3456,359.3C3552,310,3648,229,3744,171.5C3840,114,3936,82,4032,81.7C4128,82,4224,114,4320,163.3C4416,212,4512,278,4608,294C4704,310,4800,278,4896,277.7C4992,278,5088,310,5184,326.7C5280,343,5376,343,5472,343C5568,343,5664,343,5760,310.3C5856,278,5952,212,6048,196C6144,180,6240,212,6336,196C6432,180,6528,114,6624,130.7C6720,147,6816,245,6864,294L6912,343L6912,490L6864,490C6816,490,6720,490,6624,490C6528,490,6432,490,6336,490C6240,490,6144,490,6048,490C5952,490,5856,490,5760,490C5664,490,5568,490,5472,490C5376,490,5280,490,5184,490C5088,490,4992,490,4896,490C4800,490,4704,490,4608,490C4512,490,4416,490,4320,490C4224,490,4128,490,4032,490C3936,490,3840,490,3744,490C3648,490,3552,490,3456,490C3360,490,3264,490,3168,490C3072,490,2976,490,2880,490C2784,490,2688,490,2592,490C2496,490,2400,490,2304,490C2208,490,2112,490,2016,490C1920,490,1824,490,1728,490C1632,490,1536,490,1440,490C1344,490,1248,490,1152,490C1056,490,960,490,864,490C768,490,672,490,576,490C480,490,384,490,288,490C192,490,96,490,48,490L0,490Z"/></svg>